<svg width="356" height="201" viewBox="0 0 356 201" fill="none" xmlns="http://www.w3.org/2000/svg">
<path d="M123.916 62.2514H124.528C124.682 64.5312 124.989 66.7981 125.446 69.0369C125.719 70.6069 125.087 73.5872 124.428 74.4387C124.605 75.1606 124.618 75.9128 124.468 76.6406C121.727 90.3979 112.055 98.5604 103.453 106.264C99.5483 109.763 95.3373 113.668 90.654 116.243C91.9845 119.243 94.6454 121.611 96.3751 124.225C97.965 126.634 99.6281 128.776 101.371 131.031L102.156 131.43C103.001 132.514 103.693 133.785 104.77 134.636C104.577 134.952 104.416 135.286 104.291 135.634H104.491C104.597 135.408 104.797 134.696 104.93 135.235H105.136V135.435C105.256 135.741 105.136 135.435 105.09 136.034H105.702C105.343 137.976 105.861 137.623 106.507 138.834C106.507 138.834 105.994 140.83 106.141 141.036V141.242L106.567 141.036C106.691 140.686 106.853 140.352 107.052 140.038V140.238C107.684 141.182 107.006 144.336 106.327 144.442C106.134 144.283 106.281 144.369 105.935 144.243C105.975 143.838 105.937 143.429 105.822 143.039H105.622C105.402 143.704 105.695 143.345 105.163 143.644V143.438C104.657 142.866 104.691 142.34 103.832 142.041V142.44C104.258 142.919 104.052 142.506 103.979 143.238H104.385C104.604 143.078 104.444 143.172 104.81 143.039C104.604 144.056 105.915 145.553 105.589 146.245C105.369 146.405 105.529 146.312 105.163 146.445L105.209 145.839C104.052 145.932 104.544 145.793 103.812 145.44C103.473 145.274 103.626 145.706 103.58 145.839L102.981 145.64L102.934 146.245C103.387 146.511 103.287 146.484 103.314 146.644C103.196 146.843 103.039 147.016 102.853 147.154C102.666 147.291 102.454 147.389 102.229 147.442V147.642C102.894 147.788 102.894 147.968 103.407 148.241C103.327 148.447 103.24 148.647 103.161 148.846C102.698 149.172 102.198 149.44 101.67 149.644V149.445C101.537 149.232 101.564 149.259 101.511 148.846C101.251 148.64 101.584 148.713 101.764 148.241C101.557 148.061 101.764 148.241 101.577 148.041C100.985 148.4 100.752 148.387 100.307 148.647C100.134 148.859 100.167 148.833 100.054 149.245H101.078C101.176 149.568 101.219 149.906 101.205 150.243H100.792C99.8809 149.531 98.0515 149.418 97.8253 149.046C97.3663 148.627 97.7654 148.693 97.4794 148.241C96.6545 148.733 96.3152 148.081 95.6699 147.842V148.241C96.089 148.573 96.0358 148.813 96.6279 149.046C96.9671 149.372 97.1135 149.392 97.8186 149.445C97.7122 149.857 97.7455 149.831 97.5725 150.044C96.8574 149.516 96.0593 149.111 95.2109 148.846L95.171 149.445C95.936 149.831 96.4615 150.27 97.3264 150.642V150.848H97.1268C95.9993 150.764 94.9066 150.42 93.9336 149.844C94.4725 149.551 94.1598 149.891 94.386 149.245H93.9802C93.5677 149.738 93.9802 149.864 93.1021 150.044C92.956 149.591 92.7105 149.177 92.3836 148.832C92.0567 148.486 91.6567 148.218 91.2128 148.048C91.2128 148.64 91.592 148.46 90.9467 148.853C90.0153 147.11 88.0861 146.232 86.7623 144.861C84.9577 142.95 83.3384 140.872 81.926 138.655C81.7065 138.315 81.0013 138.202 80.7618 137.856C80.3494 137.264 80.2762 136.685 79.877 136.053L78.5466 134.849C77.3491 133.06 73.8499 126.647 72.2866 125.842V126.042C71.5216 127.079 71.8143 128.616 71.3686 130.033C70.2244 133.898 69.3814 137.846 68.8473 141.841H67.896V142.041C68.2419 142.353 68.1688 142.22 68.2419 142.846C67.2108 143.318 67.7297 144.302 66.4724 144.642L66.3992 145.646H66.193C66.0001 145.487 66.1464 145.573 65.8005 145.447L65.6408 144.848C65.8212 144.818 65.9926 144.749 66.1423 144.644C66.292 144.539 66.4162 144.402 66.5057 144.243H65.8936C65.6608 144.655 65.408 145.393 64.9689 145.646C64.8492 144.981 65.0953 145.34 64.6097 145.048C65.2417 147.223 63.053 149.338 61.3899 149.851V149.445C61.5631 149.333 61.7115 149.186 61.8259 149.015C61.9403 148.843 62.0183 148.65 62.0552 148.447C61.849 148.267 62.0552 148.447 61.8689 148.247C61.2037 148.633 61.1305 148.447 60.2058 148.647L60.2391 148.247C60.5491 147.98 60.7793 147.633 60.9043 147.243C60.6981 147.063 60.9043 147.243 60.718 147.043H60.3056C60.2209 147.834 59.9765 148.599 59.5871 149.292C59.3809 149.112 59.5871 149.292 59.4009 149.092C59.1614 148.613 59.3343 148.241 59.0948 147.695H58.689C58.7071 148.377 58.5871 149.056 58.3365 149.691L57.9107 149.897V149.691C57.7111 149.318 57.8508 148.261 57.6446 147.895C57.2588 148.134 57.2854 147.895 57.0126 148.094H56.8131C57.0461 148.394 57.2261 148.732 57.3453 149.092C56.8596 149.019 57.0392 148.966 56.527 149.092C56.8064 149.591 57.0991 149.598 56.8663 150.097C56.6334 150.243 56.6601 150.216 56.201 150.296C56.0214 149.511 56.201 148.773 55.3296 148.301C55.1367 148.141 55.283 148.227 54.9371 148.101V148.5C55.2497 148.766 55.1566 148.627 55.2963 149.099H55.0967C54.8639 148.939 54.7641 148.946 54.2918 148.899C53.6731 147.762 52.8615 146.684 52.5222 145.294C52.9042 145.146 53.2173 144.862 53.4004 144.495L53.9858 144.895C53.882 144.577 53.7087 144.287 53.4785 144.046C53.2483 143.804 52.9671 143.617 52.6553 143.498C52.3174 143.661 51.9657 143.795 51.6042 143.897V144.296C52.0004 144.539 52.3243 144.883 52.5422 145.294C51.9213 145.314 51.303 145.383 50.6928 145.5L50.5332 144.895C50.9656 144.821 50.9323 144.848 51.1652 144.695C50.4999 144.469 50.4999 144.469 50.4201 143.697H51.2383C51.4391 143.311 51.606 142.908 51.7373 142.493H51.3315C51.0255 143.118 50.6662 143.158 50.2804 142.892C50.1407 142.679 50.1673 142.706 50.1207 142.293C50.786 142.127 50.4267 142.393 50.786 141.894H50.5797V141.695H50.3735C50.1606 141.821 50.3003 142.127 50.154 141.894C50.0076 141.661 50.0475 141.701 50.001 141.296C50.786 140.231 49.7415 139.1 50.3003 137.304C51.3514 133.905 50.9988 131.63 52.0034 128.297C54.1255 121.245 56.0414 109.969 59.6803 102.279L59.8333 100.283L60.4985 99.8842C60.7979 99.2722 60.6781 98.1346 60.8644 97.6823C61.1504 97.8752 61.2569 98.3941 61.4498 98.0814H61.6494C60.412 96.0857 63.0397 92.6996 63.2327 90.6773C63.0663 90.338 65.1752 84.8364 65.581 83.8718C66.3926 81.9493 66.7451 80.1065 67.6233 78.4634C68.2552 77.2926 67.8894 75.39 68.5546 74.2657C69.446 72.749 71.4151 67.1476 71.9207 64.8525L72.3132 65.0587V64.8525C72.0737 64.1873 74.1693 61.4731 74.5285 59.8499C75.2469 59.8898 75.666 60.1226 75.7392 60.0495C76.1317 59.7368 76.0319 59.8765 76.2049 59.2512H75.7991C75.5796 59.4108 75.7392 59.3244 75.3733 59.4507V59.0516H75.9854C76.0852 58.6525 76.1783 58.2533 76.2781 57.8475H77.0963C77.2028 57.4284 77.1762 57.4617 77.3425 57.2421C79.8438 55.0468 82.844 52.7251 87.1947 53.8428C88.8246 53.2108 90.328 51.8803 91.8514 51.2417C92.969 50.7826 93.4147 51.4878 94.5124 51.2417C95.0379 51.1219 95.7364 50.5232 96.2021 50.4434C96.8673 50.3236 96.9472 51.1086 97.8053 50.8425C98.8431 50.5365 100.094 50.0974 100.912 50.2371C104.331 50.8359 107.771 49.2858 111.104 50.4434C112.574 50.9556 113.146 52.0599 114.184 52.8449C115.095 53.5101 116.811 53.1709 117.783 53.8428C118.488 54.335 118.767 55.5657 119.452 56.0447L120.078 55.8451C120.244 55.9915 120.024 56.5104 120.224 56.6501C120.424 56.7898 121.555 56.6833 122.033 57.0492C122.273 57.2355 122.273 57.5748 122.785 57.8475C123.018 59.3776 123.796 60.4819 123.916 62.2514ZM51.6574 138.089C51.9901 138.355 51.9568 138.435 52.2561 138.289H52.4557V138.089H51.6574ZM52.0433 146.498H51.0188L51.0521 146.099C51.4533 145.996 51.8205 145.79 52.1164 145.5L52.0433 146.498ZM51.8903 143.098L51.857 143.498H52.0632V143.098H51.8903ZM51.8237 146.697C52.0986 146.722 52.3679 146.789 52.622 146.897L52.5888 147.296H51.9767V147.096C51.8437 146.884 51.9302 147.037 51.8237 146.691V146.697ZM52.2229 144.096C52.4985 144.116 52.7687 144.183 53.0212 144.296V144.695H52.1763L52.2229 144.096ZM53.7463 145.5V145.899C54.0656 145.653 53.9725 145.806 53.7463 145.493V145.5ZM54.0789 146.498V146.897H54.4847V146.697L54.0789 146.498ZM54.5113 143.498C54.428 143.899 54.4674 144.316 54.6244 144.695C54.7096 144.291 54.6701 143.872 54.5113 143.491V143.498ZM55.0834 146.697V147.096H55.4892L55.5225 146.697H55.0834ZM56.0081 145.294V145.699H56.2077C56.0813 145.34 56.1545 145.493 56.0081 145.287V145.294ZM59.1015 107.069L59.0682 107.468H59.2745V107.069H59.1015ZM56.3274 146.491C56.2676 147.07 56.1079 146.771 56.2809 147.09C56.5071 147.25 56.6135 147.25 57.0792 147.289V147.09C56.8478 146.867 56.5961 146.667 56.3274 146.491V146.491ZM57.3586 146.292C57.5981 147.03 57.3186 147.236 58.0837 147.496V147.289C57.9373 147.057 57.9506 146.957 57.9373 146.491L57.3586 146.292ZM58.2966 150.097C58.077 150.762 58.3764 150.403 57.8442 150.695V150.496C57.6978 150.29 57.7777 150.443 57.6712 150.097H58.2966ZM59.0549 145.493C58.8468 146.07 58.7322 146.676 58.7157 147.289C58.9219 147.476 58.7157 147.289 58.9019 147.496H59.3077L59.3743 146.691C59.6204 146.298 59.4009 145.859 59.0549 145.493V145.493ZM60.9642 144.489C61.2901 144.715 61.1571 144.848 61.3766 144.489H60.9642ZM60.8378 148.893C61.3367 149.185 61.0706 148.853 61.2037 149.491C61.0241 149.698 61.1238 149.551 60.9642 149.897C60.758 149.711 60.9642 149.897 60.7779 149.698C60.5916 149.498 60.7114 149.638 60.6049 149.292C60.7846 149.092 60.6781 149.239 60.8378 148.893ZM62.0419 146.491V146.89H62.4477V146.691L62.0419 146.491ZM61.9487 147.695V148.094H62.155C62.0219 147.742 62.0951 147.901 61.9487 147.695V147.695ZM62.7005 145.892V146.292H62.9067V145.892H62.7005ZM63.4855 146.292C63.2526 146.924 62.94 147.549 62.7204 148.287H63.1262V147.888C63.3258 147.68 63.4648 147.421 63.5281 147.14C63.5914 146.858 63.5767 146.565 63.4855 146.292V146.292ZM65.5677 145.693C65.7672 146.085 65.6608 146.052 65.5078 146.491H65.3082V146.092C65.5144 145.886 65.4147 146.072 65.5743 145.693H65.5677ZM67.1443 141.089V141.489H67.3505V141.089H67.1443ZM67.0778 141.888C67.0824 142.162 67.1318 142.434 67.2241 142.693C67.4037 142.486 67.3039 142.633 67.457 142.287H67.6632C67.8827 142.087 67.4769 142.094 67.4769 142.087C67.2773 141.928 67.4237 142.021 67.0778 141.888V141.888ZM76.4377 58.6258V59.025H76.644V58.6258H76.4377ZM80.7751 55.2198L80.7419 55.619H81.3539V55.2198H80.7751ZM77.7948 100.057V100.456H78.0011V100.057H77.7948ZM78.041 99.4585V99.8576H78.2139V99.4585H78.041ZM79.5444 101.055H80.3627C81.2075 99.6514 85.332 97.7288 86.8222 96.6578C90.0686 94.243 92.989 91.3358 96.1821 88.8478C97.3131 87.9631 98.0914 86.4596 99.2822 85.648L99.3287 85.0493C99.7545 84.9695 99.7279 84.9961 99.9541 84.8497C102.988 81.6433 106.733 74.8312 105.376 69.8352C103.759 69.9682 101.451 68.6111 98.8897 69.2365C96.7609 69.7554 95.5635 70.9861 93.4214 71.4384C93.2551 70.8198 93.2684 70.853 92.663 70.6335C91.9978 71.5116 89.5829 72.0504 89.2437 72.6292C87.5273 74.8112 87.6604 77.9179 86.3898 80.8782C86.2235 81.2574 85.6048 81.7497 85.4784 82.0757C85.5249 82.4083 85.5649 82.7409 85.6114 83.0802C84.6801 85.7944 83.4228 89.4399 82.2453 92.4867L81.8927 94.4824C81.0944 96.3651 79.8172 98.7999 79.5444 101.055ZM83.8286 82.242L83.5625 83.0469H83.7687V82.6411C83.8951 82.5014 84.0681 82.6411 84.0015 82.242H83.8286ZM91.1463 52.6187C91.3458 52.785 91.1995 52.6919 91.5387 52.8183C91.3724 52.6586 91.5188 52.7518 91.1729 52.6187H91.1463ZM92.1907 149.498H92.6031V149.698H92.184L92.1907 149.498ZM94.8517 147.096C95.0978 147.422 94.9647 147.316 95.4304 147.496V147.296L94.8517 147.096ZM98.3242 149.698L98.9229 149.897V150.097H98.7034V150.296C98.4972 150.117 98.7034 150.296 98.5105 150.097C98.3176 149.897 98.4307 150.063 98.3242 149.698V149.698ZM99.5017 147.895C99.6946 148.061 99.5549 147.968 99.8942 148.094C99.6813 147.935 99.8277 148.028 99.5017 147.895ZM101.93 145.493C101.71 145.932 101.73 145.786 101.477 146.099H101.883C102.163 145.54 102.282 145.939 101.91 145.493H101.93ZM102.209 144.495L102.176 144.895H102.788V144.495H102.209ZM109.68 50.8225V51.2217C109.993 50.9822 109.906 51.1419 109.68 50.8225ZM110.478 51.0221V51.4213H110.684V51.0221H110.478ZM111.143 52.6254C111.343 52.785 111.197 52.6919 111.543 52.8249C111.37 52.6653 111.516 52.7518 111.17 52.6254H111.143ZM104.551 145.294V145.693H104.757C104.651 145.347 104.724 145.5 104.578 145.294H104.551ZM111.742 52.8249V53.2241H112.354V53.0245L111.742 52.8249ZM105.622 136.892H106.028C105.762 137.211 105.921 137.131 105.622 136.892ZM105.076 144.076C105.223 144.276 105.143 144.13 105.249 144.475H105.043L105.076 144.076ZM105.662 141.675L105.589 142.673H105.795C106.187 142.5 105.955 142.58 106.407 142.673L106.453 142.074C106.17 141.992 105.903 141.864 105.662 141.695V141.675ZM105.848 144.675H106.254C105.988 145.014 106.154 144.941 105.848 144.695V144.675ZM119.758 57.8276C120.064 58.2533 120.297 58.4329 120.53 58.4263C120.71 58.2267 120.61 58.3731 120.763 58.0271H120.357C120.124 57.8808 120.171 57.9074 119.758 57.8276ZM122.626 76.6406C122.539 76.8469 122.453 77.0398 122.373 77.246H122.985V77.0398C122.832 76.8868 122.785 76.7936 122.626 76.6406ZM122.885 75.8423V76.2415H123.085V75.8423H122.885ZM123.643 71.2389C123.541 71.7066 123.576 72.1939 123.743 72.6425C123.846 72.1748 123.811 71.6874 123.643 71.2389V71.2389ZM123.723 72.8421V73.2412H123.923L123.956 72.8421H123.723ZM123.623 74.2391C123.663 74.6582 123.623 74.6249 123.776 74.8445V74.6382C123.956 74.4387 123.85 74.585 124.009 74.2391H123.623Z" fill="#14004B"/>
<path d="M136.756 146.739L136.71 147.338H136.504C135.838 147.145 135.047 148.323 133.603 147.937C131.95 147.451 130.357 146.782 128.853 145.941C127.596 145.276 125.926 145.276 124.662 144.744C124.775 144.258 124.815 144.431 124.722 143.939C124.416 143.806 124.004 143.426 123.751 143.34L122.913 143.54C122.341 143.273 122.487 142.103 122.035 141.737C120.704 140.679 119.793 142.103 119.141 139.535C119.567 139.462 119.533 139.488 119.766 139.335C118.609 139.102 118.496 137.838 117.704 136.934C117.865 136.553 117.963 136.148 117.997 135.736H117.385C116.167 133.202 115.688 129.596 115.196 126.928C114.943 125.598 115.735 123.702 115.509 122.724C114.105 116.591 117.325 104.044 119.38 98.5026C119.746 97.5247 120.272 96.8927 120.584 96.1011C120.704 95.4358 120.817 94.7706 120.937 94.1053C121.143 93.7395 121.828 93.3137 122.048 92.9079C122.42 92.2427 122.194 91.6506 122.607 90.9122C123.272 89.6881 124.669 88.1448 125.361 86.9207C126.365 85.1379 126.691 82.6432 128.594 81.9181C128.973 81.6786 128.953 81.9181 129.259 81.7185C129.491 81.5052 129.653 81.227 129.725 80.9202C129.758 80.6874 129.685 80.6674 129.578 80.1153C130.277 79.6629 130.417 79.1906 130.909 78.5187C132.338 77.1413 133.866 75.8696 135.479 74.7135C137.535 73.2766 140.136 72.0193 141.932 70.3096C142.105 70.456 142.145 70.5624 142.311 70.7154C142.784 69.2452 148.405 67.0566 149.556 66.7239C150.374 66.4778 151.039 67.183 151.378 66.9235H151.578C151.372 66.6109 151.372 66.7572 151.219 66.3248C155.164 66.6108 160.665 64.6085 165.468 66.7239C167.165 67.469 168.482 69.1188 169.906 70.13C170.351 70.4427 170.883 70.3961 171.289 70.7287C171.861 71.201 171.801 71.9195 172.207 72.1257C172.46 71.9661 172.56 71.9727 173.039 71.9328C173.238 72.4583 173.824 72.791 173.95 73.3298C173.85 73.7955 173.744 74.2678 173.644 74.7335C173.784 75.2058 174.256 75.1193 174.369 75.9309C173.87 76.2569 173.864 76.2236 173.704 76.9354C174.063 77.2348 174.01 77.4876 174.462 77.7337C174.622 77.5608 174.735 77.5075 174.901 77.3346C174.643 77.1259 174.451 76.8461 174.349 76.5296H174.961C175.153 77.0423 175.25 77.5855 175.247 78.1329C175.478 78.7752 175.497 79.4748 175.301 80.1286L174.675 80.3282C174.589 80.8071 175.001 80.8071 174.988 81.5323H174.788V81.7318H174.383C174.223 81.3798 173.983 81.0698 173.683 80.8262C173.383 80.5826 173.03 80.4121 172.653 80.3282V80.5277C173.079 81.0666 172.56 81.02 172.779 81.5323L173.93 82.5301C174.083 82.9426 173.611 84.8784 173.89 85.7366C174.17 86.5948 175.048 87.5993 175.307 88.5373L175.221 89.7347C175.615 91.8459 175.727 94.0003 175.553 96.141C175.474 97.1721 175.081 98.3895 175.121 99.1412C175.314 103.066 172.946 108.408 171.342 111.355C170.757 112.419 171.07 113.397 170.504 114.355C169.345 116.218 168.295 118.146 167.358 120.13C165.661 123.835 162.036 127.594 159.614 130.734C159.182 131.299 159.142 132.011 158.663 132.536C157.053 134.306 155.676 135.47 154.232 137.14C152.789 138.81 152.756 140.26 150.46 141.131V141.537C151.126 141.537 150.76 141.198 151.059 141.737H150.853C149.33 142.954 147.886 144.677 145.884 145.336C144.207 145.888 143.282 145.229 141.772 145.735C140.934 146.021 139.777 147.225 138.998 147.338C138.22 147.451 137.934 146.859 136.756 146.739ZM118.223 105.701C118.422 105.867 118.276 105.774 118.615 105.907C118.422 105.76 118.569 105.854 118.223 105.72V105.701ZM117.118 120.336V120.735H117.318C117.192 120.382 117.271 120.542 117.118 120.336ZM118.622 135.55V135.949H119.234V135.75L118.622 135.55ZM120.618 139.149L120.558 139.954H120.964V139.548C120.791 139.422 120.791 139.295 120.598 139.149H120.618ZM123.312 143.952H123.724V144.358H123.319L123.312 143.952ZM138.02 127.54L138.067 126.942C139.397 127.015 140.488 127.015 140.987 126.143C140.375 126.217 140.535 126.543 140.182 125.944C140.661 125.498 140.462 125.338 141.267 125.139C141.373 124.726 141.347 124.76 141.513 124.54C142.178 123.928 143.01 123.875 143.475 122.937C143.05 122.465 143.256 122.87 143.329 122.139C144.121 121.44 144.367 120.968 145.491 120.535C145.445 120.269 145.398 120.003 145.345 119.737H145.957L146.023 118.939C146.915 118.52 146.236 118.187 147.174 117.136C147.487 116.783 148.119 116.657 148.458 116.338C148.797 116.018 149.582 113.677 150.161 112.732C151.013 111.328 152.356 109.446 153.181 107.929C153.301 107.197 153.427 106.459 153.547 105.727C154.319 103.944 155.064 101.955 155.543 100.725C156.129 98.9157 156.273 96.9924 155.962 95.1165C155.802 94.4513 155.423 93.1673 155.723 92.9146C154.239 91.3512 152.696 90.8723 151.066 89.3156L151.305 88.9164C151.873 89.1706 152.486 89.3064 153.108 89.3156C153.048 88.3044 153.188 89.0828 153.388 88.3111H153.188V88.1115C152.277 88.0051 151.152 87.8521 150.607 87.1136C151.008 86.9808 151.428 86.9134 151.851 86.9141C152.883 87.337 153.949 87.6709 155.037 87.9119H155.244V87.7124C154.804 87.677 154.387 87.5025 154.053 87.2142C153.72 86.9259 153.486 86.5389 153.388 86.1091C149.928 86.1091 148.139 88.4907 145.957 89.9143C142.943 91.91 141.819 94.571 140.043 97.8972C136.404 104.756 132.146 118.832 135.606 126.922C136.424 127.041 137.229 127.242 138.007 127.52L138.02 127.54ZM132.552 145.954C132.845 146.42 132.812 146.427 133.523 146.56V146.154C133.205 146.036 132.871 145.969 132.532 145.954H132.552ZM134.548 146.759L134.302 147.358H135.32C135.434 147.194 135.584 147.057 135.759 146.959V146.759H134.548ZM137.568 147.358H137.974V147.558H137.561L137.568 147.358ZM149.243 141.371L149.21 141.77H149.396C149.276 141.417 149.35 141.564 149.203 141.358L149.243 141.371ZM154.831 86.322C155.031 86.4883 154.884 86.3952 155.224 86.5282C154.991 86.3486 155.137 86.4417 154.791 86.3087L154.831 86.322ZM154.718 92.5154C154.864 92.7216 154.785 92.5753 154.891 92.9146H154.718V92.5154ZM155.483 85.1113C155.736 85.4372 155.596 85.3374 156.062 85.5104V85.3108L155.483 85.1113ZM155.41 88.7169C155.414 88.9892 155.464 89.2589 155.556 89.5152H155.762V89.116C155.636 88.963 155.596 88.8632 155.423 88.7169H155.41ZM159.774 66.0986V66.4978H160.18L160.213 66.0986H159.774ZM161.191 66.2982C161.484 66.6641 161.35 66.5776 161.976 66.6973V66.4978H161.776V66.2982H161.191ZM161.823 68.6997C162.022 68.8594 161.876 68.7729 162.215 68.8993C162.036 68.7396 162.182 68.8261 161.836 68.6997H161.823ZM164.55 67.7018C164.451 67.3493 164.55 67.5023 164.377 67.2961V67.7018H164.55ZM164.697 68.5001C164.949 68.8261 164.81 68.7197 165.275 68.8993V68.6997L164.697 68.5001ZM168.023 70.9017L167.99 71.3008C168.316 71.0613 168.222 71.221 168.023 70.9017ZM171.861 74.1015V74.3077H171.655C171.256 74.4607 172.048 74.5006 172.048 74.5006C172.254 74.2878 172.048 74.5006 172.267 74.3077C172.014 74.1414 172.181 74.2279 171.835 74.1015H171.861ZM173.032 77.5075C172.946 77.7869 173.305 77.8002 173.411 77.9067C173.544 77.6938 173.059 77.5541 173.006 77.5075H173.032ZM172.912 79.1108C173.225 79.7028 173.498 80.1685 173.89 79.7095C173.278 79.4966 173.411 79.3436 172.886 79.1108H172.912ZM174.536 81.9114C174.682 82.2906 174.622 82.0578 174.496 82.5102H174.289V82.3106H174.083V82.111C174.456 81.9846 174.289 82.0711 174.509 81.9114H174.536ZM174.289 87.8986V88.3044H174.496L174.529 87.8986H174.289ZM174.11 95.7086L173.857 96.3073H174.263C174.196 95.9082 174.216 95.9348 174.083 95.7219L174.11 95.7086ZM173.677 98.7088L173.837 99.3142H174.037V99.108H174.243V98.9084H174.043C173.844 98.762 174.01 98.8419 173.651 98.7221L173.677 98.7088ZM174.615 91.7038L174.582 92.103H174.788V91.7038H174.615Z" fill="#14004B"/>
<path d="M282.013 70.4677C282.052 70.0686 282.086 69.6695 282.126 69.2703C281.54 69.5497 281.46 69.8557 281.381 70.654C280.968 70.5675 280.995 70.6008 280.789 70.4411C280.622 70.0753 280.789 70.0819 280.888 69.4433C280.51 69.483 280.148 69.613 279.831 69.8225C279.777 69.6229 279.731 69.4233 279.684 69.2171C280.208 68.9839 280.774 68.8594 281.347 68.8512C281.391 68.4479 281.362 68.04 281.261 67.6471C281.228 67.4542 281.307 67.5074 280.669 67.4342C280.602 66.7224 280.489 66.5362 281.008 66.0372C280.755 65.5316 281.081 65.8044 280.436 65.6248C280.436 64.913 280.589 65.1192 280.103 64.8198C279.771 64.6602 278.959 65.1059 278.42 65.3853L278.36 65.984C277.635 66.137 277.622 66.2634 277.263 66.7623C276.923 66.6293 277.07 66.7224 276.877 66.5561C276.571 66.3832 277.116 66.2501 277.343 65.9641H277.123V65.7645C277.003 65.5849 276.697 66.137 276.677 66.157H276.471C276.937 65.4119 277.369 64.9928 277.057 64.3608V64.1612C276.93 63.9816 276.631 64.5338 276.611 64.5537H276.198L276.558 62.9572C276.714 63.0583 276.843 63.198 276.93 63.363H277.13C276.817 61.9859 275.832 62.0325 275.134 61.1144C274.223 62.099 273.85 65.0394 274.063 65.9042L273.431 66.0905C273.291 65.7386 273.12 65.4002 272.919 65.0793C272.726 64.913 272.872 65.0061 272.526 64.8731C272.526 64.9396 272.526 65.0061 272.526 65.0726H272.32C272.503 65.556 272.816 65.9795 273.225 66.2967L273.185 66.6958C272.639 66.3398 272.049 66.058 271.429 65.8576C271.611 65.135 271.749 64.4018 271.841 63.6623C271.592 63.5428 271.324 63.4685 271.049 63.4428C271.138 63.0416 271.108 62.6231 270.963 62.2387C270.863 61.9327 270.298 61.6267 269.832 61.2142V61.0146C269.506 61.7072 269.297 62.449 269.213 63.2099C269.064 62.8264 269.034 62.4068 269.127 62.0059H268.515C268.142 63.0104 267.417 63.4494 267.045 64.5804C267.406 65.0187 267.86 65.371 268.375 65.6115C267.71 65.9108 267.324 65.3387 266.805 64.9795C266.339 65.6447 266.1 65.7711 265.508 65.7512C265.727 66.2435 265.395 65.8909 265.874 66.1636C265.797 66.4713 265.628 66.7478 265.388 66.9553C265.222 67.0883 264.909 67.2081 264.723 67.3411H264.517C264.597 67.2081 264.676 67.075 264.763 66.942H264.557V66.7424C263.945 67.4906 263.391 68.2845 262.9 69.1173C262.82 69.9156 262.747 70.7139 262.667 71.5188C262.108 72.2706 260.472 75.3373 260.252 77.506H259.647C259.94 79.4485 256.441 84.9967 255.257 87.039C254.398 88.5158 254.052 89.8729 253.201 91.4096C251.631 94.2502 241.133 117.9 238.938 119.35C239.184 119.855 238.865 119.583 239.51 119.762V119.962C239.147 120.059 238.793 120.188 238.452 120.348H238.246C238.12 120.74 238.313 120.607 238.413 120.753C238.107 121.193 237.84 121.166 237.335 121.332C237.182 121.951 237.162 121.811 237.242 122.33C236.962 122.234 236.7 122.095 236.463 121.918L236.344 122.583C235.836 123.038 235.295 123.456 234.727 123.834C234.554 123.168 234.414 122.503 234.268 121.838L234.308 121.399C234.308 109.724 236.55 92.9064 239.557 84.5243C239.876 83.6329 239.557 82.808 239.956 81.8634C240.575 80.5329 241.373 78.8365 241.985 77.5193C242.431 76.5547 241.592 76.741 242.178 76.1024C242.178 75.2043 242.344 73.6609 241.965 73.1287V72.8959C241.22 73.3549 240.821 74.7253 240.541 75.5968H240.335V75.7963H240.136C240.255 74.2729 240.934 73.4281 240.528 72.3703L241.14 72.1242C240.954 71.0598 240.581 71.4989 240.315 70.5875C240.142 70.1617 240.155 70.3813 240.515 69.9755C240.342 69.1572 240.468 69.3768 239.903 69.4233C239.903 69.1572 239.903 68.8911 239.903 68.625C239.61 68.6301 239.325 68.7228 239.084 68.8911C238.047 69.0641 238.16 69.2104 237.86 69.9821L237.248 70.0287C237.377 69.52 237.581 69.0334 237.854 68.5851V67.7868H237.441C237.287 68.4522 237.012 69.0836 236.63 69.6495C236.63 69.716 236.63 69.7825 236.63 69.8491H236.423C236.61 69.2237 236.916 69.1838 236.623 68.6383C236.623 68.5053 236.623 68.3722 236.623 68.2392L236.011 68.2858C236.011 68.4853 236.011 68.6849 236.011 68.8845H235.805V68.6849H235.599C235.798 68.0529 236.078 67.6338 236.004 67.2546C235.878 66.1969 235.512 66.2767 234.973 65.7379L233.949 65.811L233.749 66.2302C233.41 67.0284 233.556 67.5606 233.144 68.2724C232.904 68.6649 232.04 69.1506 231.92 69.563L232.126 70.1418H231.92V70.3414L231.308 70.3879C231.564 69.3874 231.984 68.4365 232.552 67.5739C232.552 67.1748 232.552 66.7757 232.552 66.3765C232.226 66.6692 232.312 66.5162 232.146 67.0018C231.6 66.8089 231.72 66.6493 231.122 66.4829C230.925 67.1336 230.653 67.7588 230.31 68.3456V68.5452H229.897C229.897 68.013 229.897 67.4808 229.897 66.9486C229.744 66.6626 229.472 66.8555 229.285 66.4031C228.727 66.7158 228.767 66.7158 228.673 67.4409C228.478 67.245 228.271 67.0607 228.055 66.8887C227.596 67.8421 227.052 68.7527 226.432 69.6096V70.0087C226.265 69.7892 226.265 69.6894 226.225 69.2304C225.64 69.2969 225.926 69.3901 225.613 69.277C225.088 69.5896 225.068 69.8092 225.001 70.521C224.582 70.4678 224.609 70.521 224.389 70.368H224.183C224.309 70.98 224.223 70.8536 224.595 71.133C224.296 71.6519 224.509 71.459 223.777 71.5987C223.99 71.745 223.83 71.6652 224.19 71.765C223.724 73.0955 222.68 74.4259 222.161 75.7099C220.997 78.5571 220.544 81.0717 219.327 83.9123C217.797 87.4847 215.808 91.4362 214.051 94.8955C212.807 97.3502 211.583 101.548 209.588 103.218C209.693 103.43 209.832 103.623 210 103.79C209.794 103.943 209.182 104.109 208.976 104.262C208.703 104.721 208.916 104.828 208.976 105.26C208.703 105.746 207.851 105.759 207.545 106.171C206.7 107.316 206.255 108.693 205.104 109.551C205.104 109.817 205.104 110.083 205.104 110.349C204.159 110.575 203.98 110.881 203.88 111.839C203.175 112.032 201.066 114.5 200.82 115.066C200.893 115.259 200.959 115.451 201.033 115.651C200.367 116.815 198.611 116.722 198.791 118.219C198.438 118.112 198.591 118.219 198.378 118.046C198.245 118.226 198.106 118.711 197.972 118.877V119.077H197.567L197.187 120.108C196.793 120.417 196.375 120.695 195.937 120.94C195.731 120.274 195.351 119.423 195.145 118.645L195.218 118.365C195.185 117.818 195.185 117.269 195.218 116.722C195.311 116.17 195.391 115.618 195.292 115.578C195.593 113.459 196.037 111.363 196.622 109.305C197.726 104.608 197.952 99.8981 199.369 95.6073L199.25 94.4231C199.469 93.4652 200.148 91.8553 200.354 91.0304C200.248 90.6446 200.134 90.2654 200.028 89.8795L200.44 89.813C200.407 89.5469 200.381 89.2875 200.354 89.0214L200.747 88.7553C200.64 88.436 200.54 88.1233 200.44 87.804C200.547 87.5778 201.285 87.3317 201.398 87.039L201.279 85.8615C201.997 83.9988 202.915 81.737 203.567 79.8743C203.853 79.0427 203.567 78.5438 203.98 77.7987C204.751 76.3818 205.915 74.9714 205.756 72.8826L206.368 72.7828C206.299 71.623 206.388 70.4592 206.634 69.3235C206.657 68.786 206.533 68.2523 206.275 67.7802V67.5872C205.669 68.1194 206.308 68.7448 205.37 68.9177C205.649 69.7027 205.43 69.257 206.035 69.41C205.769 69.8291 205.503 69.8424 205.303 70.3347C204.821 70.2411 204.331 70.1899 203.84 70.1817C203.933 69.8158 203.84 69.9821 204 69.7493C204.419 69.6362 204.153 69.5431 204.432 69.8823C205.543 68.9443 204.339 67.554 205.097 66.5561C204.319 65.0793 203.767 65.5915 203.986 63.7288L203.78 63.7688C202.849 63.5093 202.29 64.7866 201.665 65.3254C201.977 65.8842 201.778 65.7711 202.536 65.7844V65.9774L202.33 66.0106L202.37 66.4098L202.17 66.443V66.2435C201.675 66.2654 201.18 66.2139 200.7 66.0905C200.833 65.5915 200.747 65.7512 201.053 65.4252V65.2256C200.769 65.3652 200.507 65.5444 200.274 65.7578C200.068 65.1259 200.274 65.199 200.341 64.3409L199.729 64.4473C199.674 65.0108 199.441 65.5421 199.063 65.9641V66.1636L198.857 66.1969C198.839 65.6669 198.927 65.1386 199.115 64.6428C199.304 64.1471 199.589 63.6939 199.955 63.3097L199.835 62.1256L199.429 62.1921L199.509 62.9771L198.897 63.0836C199.05 63.6157 199.203 63.6157 198.997 64.0681C198.797 64.4007 198.737 64.0681 198.425 64.567C198.059 64.5005 198.225 64.567 197.999 64.4407C197.999 64.1746 198.511 62.6645 198.431 62.558C198.684 62.0258 198.485 62.232 199.203 62.0325L199.163 61.6333C198.551 61.7132 198.584 61.5868 198.345 61.773C197.766 62.1056 197.826 62.3252 197.414 62.731C197.64 63.17 197.52 63.0436 197.879 63.2565V63.4494L196.881 63.822C196.728 64.7999 196.263 64.9396 196.283 66.1304C195.272 66.5628 195.045 67.6937 194.447 68.4454V68.6383H194.247C194.306 68.1521 194.395 67.67 194.513 67.1948L195.125 67.0883C195.125 66.8621 195.085 66.6759 195.079 66.5162L194.766 66.7357V66.9353H194.56C194.557 66.6553 194.6 66.3767 194.686 66.1104L193.868 66.2501L193.828 65.851L194.214 65.5849V65.3919C194.4 65.1591 194.44 65.5516 194.44 65.5516C194.613 65.7379 194.58 65.7179 194.706 66.1104C195.178 66.2634 194.912 66.0572 195.079 66.3233C195.077 66.1368 195.122 65.9528 195.209 65.7879C195.296 65.623 195.423 65.4824 195.578 65.3786C195.225 64.9396 195.458 65.0793 194.719 65.1192C194.939 64.6203 195.125 64.74 195.471 64.3874L195.677 64.3542C195.502 64.0143 195.26 63.7134 194.966 63.4694C194.966 63.4694 194.926 63.0769 194.746 63.3097V63.5093C194.287 64.0349 194.553 63.6291 194.62 64.3276C194.034 64.2012 193.695 63.3031 193.402 62.5314H193.196L193.036 62.9572C193.083 63.1035 192.983 63.0969 193.482 63.2831C193.396 64.5604 192.897 63.5359 192.604 64.8331L192.198 64.9063V64.7067C192.012 64.5338 192.118 64.6735 191.952 64.3475C192.391 64.0615 192.504 64.1147 192.704 63.6157L192.91 63.5825L192.87 63.19C191.273 63.6956 190.449 66.0106 188.879 66.8688C188.879 67.0684 188.925 67.2613 188.945 67.4609C189.284 67.2746 189.138 67.3877 189.331 67.1948L189.936 67.0883C189.936 67.1548 189.936 67.2214 189.936 67.2879L189.544 67.554C189.298 68.0463 189.052 68.0729 188.752 67.8866C188.319 68.3794 187.985 68.9508 187.768 69.5697C187.635 69.9821 188.127 70.1684 188.054 70.3214C187.934 70.5875 186.943 71.5454 186.77 71.9446C185.366 75.1178 184.88 78.2245 183.597 81.5041C179.299 92.4939 177.915 106.69 175.521 120.168L175.78 122.729C175.061 128.051 176.385 135.216 177.776 138.442C177.982 138.908 178.747 139.108 178.913 139.453C178.913 139.859 178.86 140.265 178.827 140.671C179.148 141.443 179.619 142.143 180.212 142.731C180.806 143.319 181.511 143.784 182.286 144.097C182.545 144.057 182.399 144.21 182.672 143.831C183.909 143.897 184.056 145.161 184.927 145.66C185.28 145.747 185.02 145.394 185.539 145.554C186.603 145.487 187.016 146.059 187.535 146.625V146.698C188.548 146.636 189.564 146.755 190.535 147.051L191.965 146.944V146.545H191.759V146.345C190.894 146.385 191.214 146.146 190.741 146.625H190.329L190.528 145.807C191.373 145.807 191.972 145.807 192.371 146.266C192.644 146.139 192.524 146.179 192.577 146.053C192.877 145.534 192.524 145.82 193.189 145.607C193.189 145.873 193.189 146.139 193.189 146.405C193.422 146.212 193.775 145.966 194.001 145.74C194.194 146.113 194.087 145.886 194.001 146.339C194.586 146.272 194.294 146.179 194.613 146.292C195.165 145.92 194.819 146.292 194.813 145.68C196.329 146.146 196.496 144.829 198.086 144.835C198.225 144.445 198.292 144.032 198.285 143.618C198.45 143.705 198.592 143.83 198.698 143.984C199.981 143.432 202.33 140.152 203.354 139.034C207.911 134.231 212.827 129.541 216.599 124.053H217.005C217.79 125.723 218.402 136.134 220.045 137.358C221.269 138.256 223.371 138.742 223.95 140.252C224.389 140.039 224.243 140.059 224.562 139.806C226.458 141.615 229.146 142.354 232.352 142.806C232.393 142.757 232.438 142.71 232.485 142.667C232.519 142.667 232.545 142.726 232.585 142.753L232.532 143.059C232.622 142.99 232.709 142.917 232.791 142.84H232.858L233.117 142.434C233.516 142.687 233.27 142.434 233.177 143.199C233.789 142.986 233.763 142.913 234.069 142.414C234.202 142.633 234.182 142.6 234.215 143.019C235.412 142.896 236.566 142.507 237.594 141.882C237.674 142.374 237.634 142.201 237.514 142.68C237.838 142.548 238.134 142.356 238.386 142.114V142.114H238.433C238.552 142.043 238.679 141.985 238.812 141.941C238.605 142.088 238.725 142.028 238.433 142.114H238.386L238.346 142.5H239.164L239.224 141.902L239.796 142.314C240.768 141.356 241.293 141.389 242.617 140.564C244.426 139.44 246.089 137.631 247.726 136.26C247.899 136.047 247.872 136.074 247.985 135.662H248.597C248.551 135.455 248.498 135.256 248.451 135.056C251.112 133.965 255.662 127.266 257.844 124.412C264.59 115.598 270.79 95.7603 276.597 85.9346C277.382 84.6042 277.735 82.2692 278.261 81.3578C278.905 80.3376 279.485 79.2777 279.997 78.1846C280.516 76.894 280.196 76.1024 280.729 74.7852C281.268 73.6343 282.545 71.5987 282.013 70.4677ZM203.042 72.2306L203.002 71.8382L203.407 71.7716L203.447 72.1641L203.042 72.2306ZM204.099 69.257L204.059 68.8645L204.465 68.798L204.505 69.1905L204.099 69.257ZM203.946 67.6538C204.465 68.0463 203.986 68.0862 204.612 67.9465L204.671 68.5385H203.634C203.691 68.229 203.796 67.9305 203.946 67.6538V67.6538ZM203.434 70.7472L203.634 70.7139V70.5143C203.82 70.6939 203.713 70.5542 203.88 70.8802C203.853 70.9002 203.048 70.9667 203.427 70.7472H203.434ZM203.501 65.3254C203.827 65.7911 203.607 65.8244 203.394 66.3432L203.195 66.3765C203.204 66.0065 203.307 65.6448 203.494 65.3254H203.501ZM203.441 67.9265L203.035 67.993L202.975 67.401C203.514 67.5739 203.195 67.3212 203.434 67.9265H203.441ZM202.889 70.6274C203.407 71.0199 202.929 71.0598 203.554 70.9201L203.614 71.5122H202.576C202.631 71.2031 202.734 70.9045 202.882 70.6274H202.889ZM202.376 73.7208L202.576 73.6875V73.488C202.762 73.6676 202.656 73.5279 202.822 73.8472C202.795 73.8472 201.991 73.9403 202.37 73.7208H202.376ZM202.443 68.2924C202.769 68.7647 202.549 68.798 202.343 69.3169L202.137 69.3501C202.147 68.9782 202.25 68.6147 202.436 68.2924H202.443ZM199.895 69.7293C200.261 69.7959 200.101 69.7293 200.321 69.8557H200.121V70.0553H199.915L199.895 69.7293ZM201.372 66.9087H201.172V67.1083H200.966L200.926 66.7158C201.285 66.8222 201.152 66.7623 201.372 66.9087ZM198.711 89.6201H198.917V89.4205C199.103 89.6001 198.997 89.4604 199.163 89.7798C199.143 89.7199 198.338 89.813 198.711 89.5935V89.6201ZM200.813 66.5894L200.607 66.6226V66.8222L200.401 66.8555L200.341 66.2634C200.893 66.4098 200.494 66.1304 200.813 66.5628V66.5894ZM200.241 67.0883C200.367 67.2081 200.534 67.0484 200.487 67.4475H200.281C200.088 67.6405 200.228 67.5274 199.895 67.7136L199.855 67.3212C200.194 67.1415 200.048 67.2546 200.241 67.0617V67.0883ZM198.086 92.7201C198.086 92.7201 197.281 92.8133 197.66 92.5937H197.859V92.3942C198.026 92.5139 197.919 92.3742 198.086 92.6935V92.7201ZM199.383 66.8289C199.463 66.8754 199.802 66.8289 199.629 67.1881C199.389 67.1083 198.957 66.9087 199.383 66.8023V66.8289ZM196.988 99.1397H196.788V99.3393H196.582L196.542 98.9401C196.928 99.0532 196.768 98.9867 196.988 99.1131V99.1397ZM182.832 137.79C182.832 137.923 182.832 138.056 182.832 138.189H182.625C182.625 138.056 182.625 137.923 182.625 137.79H182.832ZM182.472 140.451C182.644 140.615 182.788 140.806 182.898 141.017C182.22 140.711 182.492 140.95 182.472 140.391V140.451ZM182.918 142.055L182.878 141.662L183.084 141.629L183.124 142.021L182.918 142.055ZM188.692 69.6628L189.304 69.563C188.972 69.736 189.058 69.7227 188.692 69.6029V69.6628ZM189.158 68.9976C189.065 68.8113 188.978 68.625 188.892 68.4454L189.298 68.3722L189.358 68.9643L189.158 68.9976ZM189.75 66.6958L190.362 66.5894C190.029 66.7623 190.116 66.749 189.75 66.636V66.6958ZM185.599 142.966C185.419 142.846 184.934 142.753 184.774 142.64C184.614 142.527 184.701 142.587 184.561 142.261C185.061 142.35 185.547 142.507 186.005 142.726C186.005 142.793 186.005 142.859 186.005 142.926L185.599 142.966ZM190.522 144.722C190.522 144.789 190.522 144.855 190.522 144.922L189.497 144.802C189.501 144.755 189.501 144.709 189.497 144.662L189.936 144.543L190.522 144.722ZM198.079 65.0926H197.873V65.2855L197.673 65.3254L197.633 64.9263C198.012 64.9662 197.853 64.913 198.079 65.0327V65.0926ZM197.101 65.658L197.713 65.5516C197.633 66.004 197.527 65.9907 197.793 66.3432V66.5362C197.207 66.6093 197.48 66.4497 197.181 66.6426L196.975 66.6759C196.995 66.3078 197.037 65.9412 197.101 65.5782V65.658ZM197.054 67.2679H196.855L196.815 66.8754C197.001 67.0218 196.895 66.9087 197.054 67.2081V67.2679ZM197.054 68.0662L196.848 68.0995C196.851 68.1638 196.851 68.2281 196.848 68.2924L196.642 68.3323L196.602 67.9332C196.961 67.9398 196.795 67.88 197.021 68.0064L197.054 68.0662ZM196.077 68.6317L196.689 68.5252C196.609 68.9776 196.502 68.9643 196.768 69.3169V69.5098C196.183 69.583 196.456 69.4233 196.156 69.6162L195.963 69.5697C195.971 69.2358 195.998 68.9027 196.043 68.5718L196.077 68.6317ZM196.037 70.2416H195.83L195.79 69.8491C195.963 69.9954 195.837 69.8557 196.003 70.1817L196.037 70.2416ZM193.835 67.8201C193.835 68.0197 193.835 68.2192 193.835 68.4188H193.628C193.555 68.2259 193.482 68.033 193.416 67.84L193.835 67.8201ZM189.131 145.654C189.484 145.753 189.331 145.654 189.537 145.82C189.151 145.64 189.311 145.713 189.098 145.574L189.131 145.654ZM190.355 145.361L190.967 145.514C190.971 145.58 190.971 145.647 190.967 145.713C190.455 145.494 190.602 145.58 190.322 145.281L190.355 145.361ZM195.877 144.735C196.236 144.842 196.083 144.735 196.289 144.908C195.904 144.742 196.057 144.802 195.844 144.656L195.877 144.735ZM219.34 125.583C219.34 125.45 219.34 125.317 219.34 125.177C219.506 125.37 219.42 125.224 219.546 125.563L219.34 125.583ZM237.302 70.7139C237.302 70.9135 237.302 71.113 237.302 71.3126C237.142 71.1064 237.169 71.1396 237.095 70.7272L237.302 70.7139ZM235.446 66.8621V67.4609L234.834 67.3078C235.113 66.7091 234.76 66.9952 235.426 66.7823L235.446 66.8621ZM227.895 139.959C228.119 140.045 228.328 140.166 228.514 140.318C228.008 140.172 228.155 140.265 227.895 139.959ZM229.332 141.05V140.651L229.744 140.817V141.017L229.332 141.05ZM229.951 141.003L230.968 141.123C230.968 141.19 230.968 141.256 230.968 141.323C230.223 141.316 230.27 141.363 229.931 141.003H229.951ZM235.066 141.808C234.714 141.709 234.867 141.808 234.661 141.642C234.993 141.742 234.84 141.669 235.046 141.808H235.066ZM234.76 142.261C235.1 142.394 234.96 142.301 235.146 142.467C234.787 142.327 234.933 142.42 234.74 142.261H234.76ZM238.386 141.143H238.339H238.386C238.501 141.06 238.623 140.989 238.752 140.93C238.539 141.097 238.645 141.023 238.366 141.143H238.386ZM242.012 137.691C242.364 137.79 242.211 137.691 242.417 137.857C242.045 137.75 242.198 137.83 241.992 137.691H242.012ZM242.424 139.021C242.763 139.161 242.617 139.068 242.81 139.234C242.451 139.074 242.597 139.167 242.404 139.001L242.424 139.021ZM243.036 137.83V137.424H243.236C243.236 137.551 243.236 137.684 243.236 137.817L243.036 137.83ZM243.628 139.247H243.422L243.462 138.841H243.661C243.635 138.961 243.621 139.094 243.608 139.227L243.628 139.247ZM264.164 69.5298H263.958V69.3302H263.752C263.878 69.044 264.041 68.7756 264.237 68.5319C264.404 68.9044 264.257 68.9044 264.144 69.5098L264.164 69.5298ZM264.557 67.534C264.856 67.7935 265.315 67.9265 264.889 68.339C264.705 68.0975 264.584 67.814 264.537 67.5141L264.557 67.534ZM264.996 69.3435H265.202V69.1439C265.342 69.3501 265.268 69.1905 265.362 69.5431C265.362 69.5298 264.57 69.4699 264.976 69.3235L264.996 69.3435ZM266.579 67.7735H265.967C265.967 67.6405 265.967 67.5074 266 67.3744H266.612L266.579 67.7735ZM268.774 64.0082H268.368C268.322 63.8087 268.269 63.6091 268.222 63.4095C268.561 63.5426 268.422 63.4494 268.615 63.6157H268.814L268.774 64.0082ZM270.058 63.4295C269.592 63.2432 269.726 63.3497 269.486 63.017L270.078 63.2299L270.058 63.4295ZM270.471 65.4252L270.57 64.4273C270.923 64.7666 270.896 64.7201 270.883 65.4319L270.471 65.4252ZM272.021 68.2392C271.355 67.9465 271.615 68.1727 271.668 67.6272L272.054 67.8334C272.041 67.993 272.027 68.1327 272.021 68.2392ZM275.926 63.7022V63.9018C275.786 63.6623 275.793 63.5692 275.799 63.0969H275.593C275.484 63.3175 275.433 63.5625 275.446 63.8082C275.459 64.054 275.535 64.2924 275.666 64.5005V64.7001C275.386 64.602 275.124 64.4605 274.888 64.281C275.008 63.8752 274.974 63.9018 275.147 63.6889C275.347 62.3584 275.56 63.0836 276.099 62.3052C276.209 62.5343 276.251 62.79 276.22 63.0423C276.19 63.2946 276.087 63.5328 275.926 63.7288V63.7022ZM276.478 68.5252V68.7248H276.278C276.411 68.4744 276.505 68.2052 276.558 67.9265C276.684 68.2991 276.691 68.2392 276.458 68.5519L276.478 68.5252ZM279.305 70.9866H279.511L279.451 71.5854C279.451 71.5854 279.272 71.6652 279.265 71.3858H279.066L279.305 70.9866ZM279.059 67.1748L279.019 67.5739C278.66 67.6937 278.819 67.6139 278.593 67.7669H278.394L278.633 67.3744C277.688 67.8001 277.828 68.4255 277.462 68.9577V69.1506H277.256C277.469 66.8422 277.409 67.4475 278.32 66.5628H279.139C279.039 67.1748 278.946 66.9087 279.059 67.2014V67.1748ZM278.826 75.9893V76.1955H278.62C278.676 75.9179 278.77 75.6494 278.899 75.3972C279.026 75.7697 279.032 75.6766 278.826 76.0159V75.9893ZM280.017 74.2264C279.717 74.3661 279.751 74.2862 279.425 74.0135C279.219 73.8272 279.425 74.0135 279.239 73.8073C279.697 73.5025 280.083 73.1005 280.369 72.6298C280.443 72.9047 280.449 73.1932 280.388 73.4711C280.326 73.7489 280.199 74.0079 280.017 74.2264V74.2264ZM281.081 71.6386H280.875C280.709 71.9845 280.822 71.8382 280.636 72.0377C280.449 72.2373 280.576 72.1109 280.21 72.2306V72.0311H280.004L280.323 70.8403C280.675 71.0997 280.629 71.2394 281.081 71.4523V71.6386Z" fill="#14004B"/>
<path d="M275.126 141.563C275.791 141.396 275.432 141.662 275.791 141.163C275.791 140.904 276.51 140.252 276.304 139.76C276.057 139.5 275.738 139.094 275.519 139.361C275.086 139.906 275.006 141.077 274.72 141.762H274.521V141.563C274.348 141.15 274.707 140.285 274.873 139.567H274.461V139.367H274.261C274.042 140.032 274.334 139.673 273.802 139.966L273.869 139.168C274.674 138.855 274.255 138.848 274.534 138.17C273.872 137.904 273.33 137.404 273.011 136.766C273.436 136.693 273.403 136.72 273.636 136.567C273.416 136.141 273.596 136.014 273.722 135.362H273.523V135.562C273.342 135.814 273.186 136.084 273.057 136.367C272.319 136.407 272.658 136.068 272.392 136.766C273.396 137.558 273.616 138.855 272.931 140.372H272.525L272.572 139.766C272.853 139.349 273.028 138.87 273.084 138.369C272.585 138.23 272.738 137.897 272.485 138.17C272.416 138.565 272.385 138.966 272.392 139.367L270.749 139.567C270.669 138.902 270.33 139.001 270.21 138.569L270.509 137.365C270.509 137.285 269.97 136.899 269.937 136.766C269.718 135.735 270.662 134.245 269.571 133.56C269.537 134.258 269.346 134.941 269.013 135.555V135.156C268.254 134.032 268.953 130.852 269.452 129.355C270.782 125.364 271.873 121.552 273.011 117.341C273.789 114.467 274.774 109.192 276.337 105.939C276.233 105.207 276.22 104.465 276.297 103.73C277.195 100.956 277.894 96.9913 279.098 93.7515C279.317 92.6871 279.53 91.6161 279.763 90.5517C280.814 88.0038 281.759 84.9171 282.623 82.3426C282.756 81.4778 282.896 80.6063 283.023 79.7415C284.034 77.0207 285.59 73.5747 285.97 70.5346C286.395 70.4614 286.362 70.488 286.595 70.335C286.209 69.5101 288.125 66.7959 288.777 65.7315C289.162 65.9022 289.563 66.0358 289.974 66.1306C290.294 63.5495 292.835 61.8398 294.631 61.3276V61.5272C294.837 61.7134 294.631 61.5272 294.824 61.7267C294.318 62.0594 294.578 62.4385 294.305 63.1304H294.718C295.296 62.4119 296.201 62.525 296.846 61.9263C297.372 61.4407 297.325 60.9417 297.971 60.5293L297.931 61.128C297.461 61.8924 297.058 62.6959 296.727 63.5295C296.953 64.0218 296.627 63.6692 297.106 63.9287C297.418 63.0639 297.771 63.2634 298.217 62.7313L298.982 60.9218H299.594L299.487 62.3255C299.176 62.4855 298.887 62.6869 298.629 62.9242C298.866 63.0718 299.061 63.278 299.195 63.5229C298.885 63.6859 298.596 63.8871 298.336 64.1216C298.615 64.2204 298.88 64.3569 299.121 64.5274C298.769 64.7935 298.882 64.6538 298.662 65.1261H299.481C299.453 64.4572 299.505 63.7874 299.634 63.1304C300.066 63.0572 300.033 63.0838 300.259 62.9308C300.818 62.3787 300.505 61.933 301.15 61.933C302.481 63.1304 302.893 65.1261 303.239 66.736H303.445C303.399 66.052 303.52 65.3671 303.798 64.7403C304.048 64.5905 304.339 64.5209 304.63 64.5407V64.7403H304.829C304.869 65.1394 304.909 65.5386 304.942 65.9377C304.646 66.0393 304.362 66.1755 304.097 66.3435C304.922 66.7028 305.428 66.5963 305.428 67.7405H305.634C305.82 67.9468 305.415 67.9401 305.415 67.9401C304.876 68.3459 304.902 67.7738 304.536 68.745C305.142 68.6652 304.816 68.4124 305.135 68.9446C305.455 69.4768 305.308 72.2708 305.022 73.1423C304.689 74.1069 304.077 75.138 303.785 75.9496C303.273 77.3599 303.286 79.4155 302.574 81.1518C300.352 86.5802 299.042 93.9311 296.9 99.5658C296.015 101.894 296.234 104.588 294.97 106.172C295.263 108.42 293.274 115.445 292.309 117.181L291.83 120.78C290.58 124.313 289.795 128.597 288.331 131.99C287.546 133.826 287.666 135.582 285.963 136.394C285.703 136.56 285.77 136.467 285.331 136.593C284.899 137.578 284.207 137.857 283.721 138.995H283.927V139.194C284.659 138.629 285.211 137.864 285.517 136.992H285.723L285.63 138.196C285.401 138.412 285.239 138.689 285.165 138.995C283.342 139.926 282.397 141.423 280.654 141.995C280.707 141.416 280.867 141.722 280.701 141.396C280.475 141.556 280.634 141.469 280.275 141.596C280.33 141.128 280.296 140.654 280.175 140.199H279.77C279.61 141.203 279.424 141.629 278.439 141.795L278.472 141.396C278.649 141.288 278.8 141.143 278.915 140.97C279.029 140.798 279.105 140.603 279.138 140.398H278.938V140.199H278.732C278.632 141.017 278.645 141.11 278.033 141.396V141.596H277.787V141.197C278.5 140.371 279.057 139.422 279.43 138.396H279.224C278.918 138.855 278.951 138.762 278.785 138.795C278.193 137.917 278.858 137.232 279.39 136.194H279.191C278.785 136.74 277.973 137.026 277.654 137.591C276.989 138.749 277.222 142.175 275.252 142.394V142.195H275.046L275.126 141.563ZM304.131 71.1133V70.7075C303.532 70.7075 303.858 70.5146 303.519 70.7075H303.312C303.505 70.8738 303.359 70.7807 303.705 70.9137C303.931 71.0734 303.785 70.9803 304.131 71.1133ZM303.818 72.5103C303.698 71.8451 303.944 72.2043 303.459 71.9116L303.412 72.5103H303.818ZM304.197 67.5077L304.23 67.1085H303.818V67.3081L304.197 67.5077ZM303.612 64.5074C303.113 64.2147 303.372 64.5474 303.246 63.9087H303.452V63.7025C303.798 63.8289 303.645 63.7424 303.845 63.9087C304.33 64.1615 303.991 63.8222 304.224 64.3079C303.805 64.3811 303.838 64.3544 303.612 64.5074V64.5074ZM303.465 63.7025H303.066V63.3034H303.479L303.465 63.7025ZM302.654 66.3103C302.722 65.7753 302.695 65.2326 302.574 64.707C302.262 64.9698 302.031 65.3159 301.909 65.7049H302.108C302.275 66.2836 302.095 66.0774 302.654 66.3103V66.3103ZM301.989 66.909V66.5098H301.583L301.55 66.909H301.989ZM301.629 68.9047L301.736 67.7073H301.33L301.237 68.9047H301.629ZM301.071 63.3034H301.27L301.503 62.9042H301.303C301.303 62.6248 301.11 62.7046 301.11 62.7046L301.071 63.3034ZM300.884 65.7049C300.884 65.4521 301.31 65.3324 300.931 65.1062C300.931 64.8933 300.505 65.6583 300.478 65.7049H300.884ZM294.418 64.9132V64.5141H294.212V64.9132H294.418ZM293.048 64.1083L293.294 63.5096H292.888C292.915 63.922 292.888 63.8888 293.028 64.1017L293.048 64.1083ZM291.531 65.3124L292.03 64.1083H291.824C291.385 64.7336 291.019 64.7935 291.511 65.3057L291.531 65.3124ZM288.87 68.3126C289.09 67.8736 289.07 68.0266 289.329 67.7139H288.717L288.478 68.1131L288.87 68.3126ZM282.144 140.565L282.397 139.966H281.991L281.958 140.365L281.739 140.565H282.144ZM286.994 73.7144L287.234 73.3086C286.854 73.5614 286.994 73.7144 286.994 73.7144V73.7144ZM281.3 140.964C281.386 140.684 281.033 140.671 280.92 140.565C280.761 140.751 281.246 140.904 281.3 140.964V140.964ZM279.783 139.361V138.961H279.583C279.716 139.314 279.636 139.154 279.783 139.361ZM279.916 137.558L279.949 137.159H279.783C279.856 137.511 279.783 137.358 279.922 137.558H279.916ZM279.33 139.966V139.56H279.124C279.264 139.913 279.184 139.76 279.337 139.966H279.33ZM278.399 138.762H277.993V138.562C278.359 138.689 278.206 138.602 278.406 138.755L278.399 138.762ZM276.171 138.562V138.163H275.971C276.104 138.509 276.024 138.356 276.177 138.562H276.171ZM278.246 102.932C278.316 102.594 278.271 102.243 278.12 101.934C278.052 102.305 277.884 102.65 277.634 102.932H278.246ZM277.721 104.535L277.973 103.936C277.368 104.163 277.421 104.069 277.727 104.535H277.721ZM274.607 134.957C274.408 134.797 274.554 134.89 274.215 134.757C274.414 134.917 274.268 134.83 274.614 134.957H274.607ZM274.348 132.961L274.381 132.562H274.175L274.142 132.961H274.348ZM275.938 111.946V111.547H275.791C275.871 111.893 275.791 111.733 275.944 111.939L275.938 111.946ZM273.836 134.365L273.895 133.566H273.689C273.649 134.265 273.377 133.906 273.842 134.358L273.836 134.365ZM273.962 119.151L273.995 118.751H273.796V119.151H273.962ZM270.855 138.755C270.855 138.29 270.855 138.19 270.709 137.95C270.716 138.429 270.709 138.529 270.855 138.755ZM271.155 134.764L271.188 134.365H270.982V134.764H271.155ZM270.163 131.764C270.829 131.597 270.463 131.857 270.829 131.364C270.682 131.158 270.762 131.304 270.656 130.959H270.449V131.158C270.243 131.371 270.27 131.344 270.163 131.757V131.764ZM270.243 133.36C270.516 132.881 270.689 133.014 270.509 132.562L270.35 131.963H270.143L270.037 133.36H270.243Z" fill="#14004B"/>
</svg>
